<?xml version="1.0" encoding="UTF-8"?>
<svg width="700pt" height="700pt" version="1.1" viewBox="0 0 700 700" xmlns="http://www.w3.org/2000/svg" fill="#ffffff">
 <g>
  <path d="m469.08 119.02c-31.688-31.453-74.566-49.051-119.22-48.918h-1.5781c-44.746 0.53516-87.48 18.656-118.97 50.449-31.488 31.793-49.203 74.703-49.309 119.45v188c0 5.8359 2.3164 11.43 6.4453 15.555 4.125 4.1289 9.7188 6.4453 15.555 6.4453h28c2.6523 0 5.1953-1.0547 7.0703-2.9297s2.9297-4.418 2.9297-7.0703v-140c0-2.6523-1.0547-5.1953-2.9297-7.0703s-4.418-2.9297-7.0703-2.9297h-30v-50c0.046875-36.617 13.574-71.938 38-99.219l7.4219 6.6602c3.9219 3.5117 9.8945 3.3789 13.656-0.30078 24.629-24.129 57.836-37.488 92.312-37.137 34.477 0.35547 67.398 14.387 91.531 39.016 1.8672 1.8984 4.4141 2.9688 7.0781 2.9805h0.16016c2.7344-0.050781 5.332-1.2227 7.1797-3.2383l6-6.5c23.328 26.914 36.195 61.32 36.262 96.938l0.16016 50.66h-29.762c-5.5234 0-10 4.4766-10 10v140c0 2.6523 1.0547 5.1953 2.9297 7.0703s4.418 2.9297 7.0703 2.9297h10v8.2617c-0.011719 6.4883-5.2695 11.746-11.762 11.758h-96.477c-6.4922-0.011718-11.75-5.2695-11.762-11.758v-28.121h54c6.8945 0 13.508-2.7383 18.387-7.6133 4.875-4.8789 7.6133-11.492 7.6133-18.387v-208.16c0-6.8945-2.7383-13.508-7.6133-18.383-4.8789-4.8789-11.492-7.6172-18.387-7.6172h-128c-6.8945 0-13.508 2.7383-18.387 7.6172-4.875 4.875-7.6133 11.488-7.6133 18.383v208.16c0 6.8945 2.7383 13.508 7.6133 18.387 4.8789 4.875 11.492 7.6133 18.387 7.6133h54v28.238c0.011719 8.4219 3.3594 16.492 9.3125 22.449 5.957 5.9531 14.027 9.3008 22.449 9.3125h96.48-0.003907c8.4375-0.011719 16.52-3.3711 22.477-9.3438 5.957-5.9688 9.2969-14.062 9.2852-22.496v-8.6406c5.4219-0.44141 10.484-2.8945 14.188-6.8828s5.7734-9.2148 5.8125-14.656l-0.37891-188.82c-0.03125-22.379-4.5117-44.527-13.191-65.152-8.6758-20.625-21.375-39.32-37.352-54.988zm-144.18 222.68c-2.6055-1.3867-4.7891-3.4609-6.3086-5.9922-1.5234-2.5312-2.3281-5.4336-2.3281-8.3867v-54.801c-0.003907-3.957 1.4336-7.7852 4.043-10.762 2.6094-2.9766 6.2109-4.9062 10.137-5.4219 3.9258-0.51953 7.9062 0.40625 11.199 2.6055l41.102 27.398h-0.003907c4.5352 3.0273 7.2539 8.1211 7.2539 13.57 0 5.4492-2.7188 10.543-7.2539 13.57l-41.102 27.398h0.003906c-2.4531 1.6484-5.3047 2.5977-8.2578 2.7422-2.9492 0.14453-5.8828-0.51953-8.4844-1.9219z"/>
  <path d="m140 333.44v72.941-0.003906c0.054688 5.5664 2.1016 10.926 5.7734 15.109 3.668 4.1836 8.7148 6.9102 14.227 7.6914v-118.56c-5.5117 0.78125-10.559 3.5156-14.23 7.7031-3.668 4.1875-5.7148 9.5508-5.7695 15.117z"/>
  <path d="m540 310.62v118.56c5.5117-0.78125 10.559-3.5078 14.227-7.6914 3.6719-4.1836 5.7188-9.543 5.7734-15.109v-72.938c-0.054688-5.5664-2.1016-10.93-5.7695-15.117-3.6719-4.1875-8.7188-6.9219-14.23-7.7031z"/>
 </g>
</svg>
